<svg width="1311" height="1766" viewBox="0 0 1311 1766" fill="none" xmlns="http://www.w3.org/2000/svg">
<path d="M1303.19 1C1268.92 125.726 1148.39 438.239 840.277 682.463C716.682 780.432 530.064 917.242 258.093 917.242C171.209 917.242 22.2455 891.779 16.4086 824.453C10.5717 757.126 82.4894 746.337 91.3614 793.379C99.4494 836.264 63.8277 906.884 26.5043 988.453C-10.8191 1070.02 44.6562 1135.91 72.3938 1168.85L330.292 1395C330.292 1395 362.048 1425.56 349.566 1464.92C341.294 1491 308.804 1501.73 133.5 1539.5C43 1559 2.00001 1563 1.99994 1603.5C1.99987 1644 61.9999 1655.24 174.5 1655.24H452.052H731.672H970.603C1148.39 1655.24 1284.77 1723.26 1309 1764" stroke="url(#paint0_linear_10_3)" stroke-width="4"/>
<defs>
<linearGradient id="paint0_linear_10_3" x1="-175.676" y1="956.516" x2="1168.88" y2="906.57" gradientUnits="userSpaceOnUse">
<stop stop-color="#00C8FF"/>
<stop offset="1" stop-color="#007899" stop-opacity="0"/>
</linearGradient>
</defs>
</svg>
