<svg width="271" height="308" viewBox="0 0 271 308" fill="none" xmlns="http://www.w3.org/2000/svg">
<path d="M269.292 290.906C270.621 289.916 270.895 288.036 269.906 286.708L253.774 265.056C252.784 263.728 250.905 263.453 249.576 264.443C248.248 265.433 247.973 267.312 248.963 268.641L263.302 287.887L244.056 302.225C242.727 303.215 242.453 305.095 243.443 306.424C244.433 307.752 246.312 308.027 247.641 307.037L269.292 290.906ZM33.5002 0.841196C6.07338 42.1711 -2.93986 79.8054 1.77116 113.416C6.47867 147.002 24.8275 176.125 51.2759 200.578C104.08 249.398 189.75 280.172 267.066 291.468L267.934 285.532C191.25 274.328 106.92 243.852 55.349 196.172C29.6099 172.375 12.1775 144.435 7.71308 112.584C3.2522 80.7571 11.6764 44.5789 38.4996 4.1588L33.5002 0.841196Z" fill="url(#paint0_linear_57_104)"/>
<defs>
<linearGradient id="paint0_linear_57_104" x1="679.502" y1="511.499" x2="34.0013" y2="26.999" gradientUnits="userSpaceOnUse">
<stop stop-color="#0F0F0F" stop-opacity="0.13"/>
<stop offset="0.489544" stop-color="#00C8FF"/>
<stop offset="1" stop-color="#0F0F0F" stop-opacity="0.23"/>
</linearGradient>
</defs>
</svg>
