<svg width="1700" height="1351" viewBox="0 0 1700 1351" fill="none" xmlns="http://www.w3.org/2000/svg">
<path d="M39.7813 1C74.585 60.5626 187.406 148.029 373.897 148.029C607.011 148.029 1375.6 4.89589 1602.11 130.747C1712.06 191.837 1704.98 338.177 1662.63 407.17C1569.3 559.202 1343.85 442.222 1013.15 485.234L921.949 502.017L861.007 518.8C635.564 621.965 613.808 772.911 651.758 816.868C707.16 881.037 843.243 891.628 892.117 895.846C1218.14 923.982 1698 961.496 1698 1138.7C1698 1400.81 373.897 1408.22 1 1214.72" stroke="url(#paint0_linear_12_40)" stroke-width="4"/>
<defs>
<linearGradient id="paint0_linear_12_40" x1="1717.18" y1="538.477" x2="185.488" y2="524.494" gradientUnits="userSpaceOnUse">
<stop stop-color="white"/>
<stop offset="1" stop-opacity="0"/>
</linearGradient>
</defs>
</svg>
