<svg width="27" height="27" viewBox="0 0 27 27" fill="none" xmlns="http://www.w3.org/2000/svg">
<path d="M5.55626 20.0877C6.65418 19.2481 7.88126 18.5861 9.23751 18.1017C10.5938 17.6173 12.0146 17.3752 13.5 17.3752C14.9854 17.3752 16.4063 17.6173 17.7625 18.1017C19.1188 18.5861 20.3458 19.2481 21.4438 20.0877C22.1972 19.205 22.7839 18.204 23.2037 17.0845C23.6234 15.9651 23.8333 14.7703 23.8333 13.5002C23.8333 10.637 22.8269 8.19895 20.8141 6.1861C18.8012 4.17325 16.3632 3.16683 13.5 3.16683C10.6368 3.16683 8.19879 4.17325 6.18595 6.1861C4.1731 8.19895 3.16668 10.637 3.16668 13.5002C3.16668 14.7703 3.37657 15.9651 3.79636 17.0845C4.21616 18.204 4.80279 19.205 5.55626 20.0877ZM13.5 14.7918C12.2299 14.7918 11.1589 14.3559 10.287 13.484C9.41511 12.6121 8.97918 11.5411 8.97918 10.271C8.97918 9.00086 9.41511 7.92985 10.287 7.05798C11.1589 6.1861 12.2299 5.75016 13.5 5.75016C14.7701 5.75016 15.8412 6.1861 16.713 7.05798C17.5849 7.92985 18.0208 9.00086 18.0208 10.271C18.0208 11.5411 17.5849 12.6121 16.713 13.484C15.8412 14.3559 14.7701 14.7918 13.5 14.7918ZM13.5 26.4168C11.7132 26.4168 10.034 26.0778 8.46251 25.3996C6.89098 24.7215 5.52397 23.8012 4.36147 22.6387C3.19897 21.4762 2.27866 20.1092 1.60053 18.5377C0.922406 16.9661 0.583344 15.287 0.583344 13.5002C0.583344 11.7134 0.922406 10.0342 1.60053 8.46266C2.27866 6.89113 3.19897 5.52412 4.36147 4.36162C5.52397 3.19912 6.89098 2.27881 8.46251 1.60068C10.034 0.922559 11.7132 0.583496 13.5 0.583496C15.2868 0.583496 16.966 0.922559 18.5375 1.60068C20.109 2.27881 21.4761 3.19912 22.6386 4.36162C23.8011 5.52412 24.7214 6.89113 25.3995 8.46266C26.0776 10.0342 26.4167 11.7134 26.4167 13.5002C26.4167 15.287 26.0776 16.9661 25.3995 18.5377C24.7214 20.1092 23.8011 21.4762 22.6386 22.6387C21.4761 23.8012 20.109 24.7215 18.5375 25.3996C16.966 26.0778 15.2868 26.4168 13.5 26.4168Z" fill="#00C8FF"/>
</svg>
